<svg width="50" height="18" viewBox="0 0 50 18" fill="none" xmlns="http://www.w3.org/2000/svg">
<path d="M50 0L13.4205 16.0181C10.3872 17.3379 7.83926 18 5.77882 18C3.44547 18 1.75171 17.1601 0.701701 15.4782C0.0412791 14.3983 -0.152472 13.0292 0.118363 11.3686C0.389198 9.70813 1.11004 7.94048 2.27671 6.05928C3.24964 4.53803 4.8434 2.53898 7.06217 0.0599926C6.30959 1.27842 5.75772 2.61624 5.42882 4.01952C4.84548 6.57993 5.37049 8.45899 7.00383 9.65885C7.78092 10.2181 8.84968 10.4987 10.2122 10.4987C11.2997 10.4987 12.5247 10.3188 13.8872 9.95881L50 0Z" fill="black"/>
</svg>
